/* XPM */
static char *d872d1f8bd3d4795fcb4f9d09c12819aK9vp73luTsyoX5ts[] = {
/* columns rows colors chars-per-pixel */
"128 128 39 1 ",
"  c None",
". c #0F275B",
"X c #0D265C",
"o c #192D56",
"O c #182C57",
"+ c #192C57",
"@ c #192D57",
"# c #1A2D56",
"$ c #1A2D57",
"% c #1B2E56",
"& c #1C2E55",
"* c #1D2F55",
"= c #1E2F55",
"- c #1F2F55",
"; c #1C2E56",
": c #122859",
"> c #142A59",
", c #162B58",
"< c #172B58",
"1 c #1E3054",
"2 c #1F3054",
"3 c #1F3055",
"4 c #223153",
"5 c #223253",
"6 c #233253",
"7 c #203054",
"8 c #213054",
"9 c #203154",
"0 c #213154",
"q c #FF9F00",
"w c #FFA000",
"e c #FFA100",
"r c #FFA200",
"t c #FFA300",
"y c #FFA400",
"u c orange",
"i c #FFA700",
"p c #FFAA00",
"a c #FFAB00",
/* pixels */
"                                                                                                                                ",
"                                                                                                                                ",
"                                                                                                                                ",
"                                                                                                                                ",
"                                                                                                                                ",
"                                                                                                                                ",
"         ============                                                                                                           ",
"         =============                                                                                                          ",
"         ============                                                                                                           ",
"         ============                                                                                                           ",
"         ============                                                                                                           ",
"         ============                                                                                                           ",
"         ============                                                                                                           ",
"         ============                                                                                                           ",
"         ============                                                                                                           ",
"         ============                                                                                                           ",
"         ============                                                                                                           ",
"         ============                                                                                                           ",
"         ============                                                                                                           ",
"         ============                                                                                                           ",
"         ============                                                                                                           ",
"         ============                                                                                                           ",
"         ============                                                                                                           ",
"         ============                                       rrrrrrrrrrrr                                                        ",
"         ============                                  rrrrrrrrrrrrrrrrrrrrrr                                                   ",
"         ============                               rrrrrrrrrrrrrrrrrrrrrrrrrrrr                                                ",
"         ============                             rrrrrrrrrrrrrrrrrrrrrrrrrrrrrrrrr                                             ",
"         ============                          rrrrrrrrrrrrrrrrrrrrrrrrrrrrrrrrrrrrrr                                           ",
"         ============                         rrrrrrrrrrrrrrrrrrrrrrrrrrrrrrrrrrrrrrrrr                                         ",
"         ============                       rrrrrrrrrrrrrrrrrrrrrrrrrrrrrrrrrrrrrrrrrrrr                                        ",
"         ============                     rrrrrrrrrrrrrrrrrrrrrrrrrrrrrrrrrrrrrrrrrrrrrrrr                                      ",
"         ============                    rrrrrrrrrrrrrrrrrrrrrrrrrrrrrrrrrrrrrrrrrrrrrrrrrr                                     ",
"         ============                   rrrrrrrrrrrrrrrrrrrrrrrrrrrrrrrrrrrrrrrrrrrrrrrrrrrr                                    ",
"         ============                  rrrrrrrrrrrrrrrrrrrrrrrrrrrrrrrrrrrrrrrrrrrrrrrrrrrrrrr                                  ",
"         ============                rrrrrrrrrrrrrrrrrrrrrrrrrrrrrrrrrrrrrrrrrrrrrrrrrrrrrrrrrr                                 ",
"         ============               rrrrrrrrrrrrrrrrrrrrrrrrrrrr     rrrrrrrrrrrrrrrrrrrrrrrrrrr                                ",
"         ============              rrrrrrrrrrrrrrrrrrrrrrr                rrrrrrrrrrrrrrrrrrrrrrr                               ",
"         ============              rrrrrrrrrrrrrrrrrrrr                      rrrrrrrrrrrrrrrrrrrrr                              ",
"         ============             rrrrrrrrrrrrrrrrrrr                          rrrrrrrrrrrrrrrrrrr                              ",
"         ============            rrrrrrrrrrrrrrrrrr                              rrrrrrrrrrrrrrrrrr                             ",
"         ============           rrrrrrrrrrrrrrrrrr                                 rrrrrrrrrrrrrrrrr                            ",
"         ============           rrrrrrrrrrrrrrrr                                    rrrrrrrrrrrrrrrrr                           ",
"         ============          rrrrrrrrrrrrrrrr                                      rrrrrrrrrrrrrrrr                           ",
"         ============         rrrrrrrrrrrrrrrr                                        rrrrrrrrrrrrrrrr                          ",
"         ============         rrrrrrrrrrrrrrr                                          rrrrrrrrrrrrrrr                          ",
"         ============        rrrrrrrrrrrrrrr                                            rrrrrrrrrrrrrrr                         ",
"         ============        rrrrrrrrrrrrrr                                              rrrrrrrrrrrrrrr                        ",
"         ============       rrrrrrrrrrrrrr                                                rrrrrrrrrrrrrr                        ",
"         ============       rrrrrrrrrrrrrr                                                rrrrrrrrrrrrrr                        ",
"         ============      rrrrrrrrrrrrrr                                                  rrrrrrrrrrr                          ",
"         ============      rrrrrrrrrrrrr                                                    rrrrrrrr                            ",
"         ============      rrrrrrrrrrrrr                                                    rrrrr                               ",
"         ============     rrrrrrrrrrrrr                                                      rr                                 ",
"         ============     rrrrrrrrrrrrr                                                                                         ",
"         ============     rrrrrrrrrrrrr                                                                                         ",
"         ============    rrrrrrrrrrrrr                                                                                          ",
"         ============    rrrrrrrrrrrrr                                                                                          ",
"         ============    rrrrrrrrrrrrr                                                                                          ",
"         ============    rrrrrrrrrrrr                                                                                           ",
"         ============    rrrrrrrrrrrr                                                                                           ",
"         ============    rrrrrrrrrrrr                                                                                           ",
"         ============    rrrrrrrrrrrr                                                                                           ",
"         ============   arrrrrrrrrrrr                                                                                           ",
"         ============   arrrrrrrrrrrr                                                                                           ",
"         ===========3   arrrrrrrrrrrr                                                                                           ",
"         ============   arrrrrrrrrrrr                                                                                           ",
"         ============X  arrrrrrrrrrrr                                                                                           ",
"         ============.   rrrrrrrrrrrr                                                                                           ",
"         ============:   rrrrrrrrrrrr                                                                                           ",
"         ============O   rrrrrrrrrrrr                                                                                           ",
"         =============   rrrrrrrrrrrr                                                                                           ",
"          ============   rrrrrrrrrrrrr                                                                                          ",
"          ============   rrrrrrrrrrrrr                                                                                          ",
"          ============   arrrrrrrrrrrr                                                                                          ",
"          ============:   rrrrrrrrrrrr                                                                                          ",
"          ===========3$   rrrrrrrrrrrrr                                                                                         ",
"          =============   rrrrrrrrrrrrr                                                      r                                  ",
"           ============   yyrrrrrrrrrrrr                                                    rrrrr                               ",
"           ============$   rrrrrrrrrrrrr                                                    rrrrrrr                             ",
"           =============   rrrrrrrrrrrrrr                                                  rrrrrrrrrrr                          ",
"           =============    rrrrrrrrrrrrr                                                  rrrrrrrrrrrrr                        ",
"            =============   rrrrrrrrrrrrrr                                                rrrrrrrrrrrrrr                        ",
"            ============9   yrrrrrrrrrrrrrr                                              rrrrrrrrrrrrrrq   9=                   ",
"            =============$   qrrrrrrrrrrrrrr                                             rrrrrrrrrrrrrr    3===                 ",
"             ============-   yrrrrrrrrrrrrrr                                            rrrrrrrrrrrrrrr   9======               ",
"             =============$   qrrrrrrrrrrrrrr                                          rrrrrrrrrrrrrrr    ==========            ",
"             =============4    rrrrrrrrrrrrrrrr                                       rrrrrrrrrrrrrrr    9============          ",
"              ==============   rrrrrrrrrrrrrrrrr                                    rrrrrrrrrrrrrrrrr    -=============         ",
"              =============-    qrrrrrrrrrrrrrrrr                                  rrrrrrrrrrrrrrrrr    4=============          ",
"               =============4    rrrrrrrrrrrrrrrrr                                rrrrrrrrrrrrrrrrr     ==============          ",
"               ===============   rrrrrrrrrrrrrrrrrrr                            rrrrrrrrrrrrrrrrrrr    9=============           ",
"                =============9    rrrrrrrrrrrrrrrrrrrr                        rrrrrrrrrrrrrrrrrrrq    4==============           ",
"                ==============9    qrrrrrrrrrrrrrrrrrrrrr                  rrrrrrrrrrrrrrrrrrrrrr    43=============            ",
"                 =============-6    qrrrrrrrrrrrrrrrrrrrrrrrr          rrrrrrrrrrrrrrrrrrrrrrrrr     ===============            ",
"                  ==============9    qrrrrrrrrrrrrrrrrrrrrrrrrrrrrrrrrrrrrrrrrrrrrrrrrrrrrrrrrr     3==============             ",
"                  ==============99    qrrrrrrrrrrrrrrrrrrrrrrrrrrrrrrrrrrrrrrrrrrrrrrrrrrrrrrq     9==============              ",
"                   ===============9    rrrrrrrrrrrrrrrrrrrrrrrrrrrrrrrrrrrrrrrrrrrrrrrrrrrrrq     4===============              ",
"                   ================9     rrrrrrrrrrrrrrrrrrrrrrrrrrrrrrrrrrrrrrrrrrrrrrrrrrr     9===============               ",
"                    ================6     qrrrrrrrrrrrrrrrrrrrrrrrrrrrrrrrrrrrrrrrrrrrrrrq      3===============                ",
"                     ================6     rrrrrrrrrrrrrrrrrrrrrrrrrrrrrrrrrrrrrrrrrrrrrr     9================                 ",
"                      ================4      rrrrrrrrrrrrrrrrrrrrrrrrrrrrrrrrrrrrrrrrrq      43================                 ",
"                       ================93      rrrrrrrrrrrrrrrrrrrrrrrrrrrrrrrrrrrrrr       9=================                  ",
"                       ==================4       rrrrrrrrrrrrrrrrrrrrrrrrrrrrrrrrrr       4==================                   ",
"                        ==================39       rrrrrrrrrrrrrrrrrrrrrrrrrrrrrr        9==================                    ",
"                         =====================        rrrrrrrrrrrrrrrrrrrrrrrr         9===================                     ",
"                          ====================9=          yrrrrrrrrrrrrrry           9====================                      ",
"                           =====================33                                =3=====================                       ",
"                            =======================3=                           3=======================                        ",
"                              ==========================@                   =-=========================                         ",
"                               ==========================3====$,    ,$$===============================                          ",
"                                ======================================3=============================                            ",
"                                 ==================================================================                             ",
"                                   ===============================================================                              ",
"                                     ===========================================================                                ",
"                                      ========================================================                                  ",
"                                        ====================================================                                    ",
"                                          ================================================                                      ",
"                                            ============================================                                        ",
"                                               =======================================                                          ",
"                                                  ================================                                              ",
"                                                      =========================                                                 ",
"                                                            =============                                                       ",
"                                                                                                                                ",
"                                                                                                                                ",
"                                                                                                                                ",
"                                                                                                                                ",
"                                                                                                                                ",
"                                                                                                                                "
};
