/* XPM */
static char *_6aab93fea194567ec85d4a72b094e5exqb32yXIvKJdqxlM[] = {
/* columns rows colors chars-per-pixel */
"32 32 20 1 ",
"  c None",
". c #192C57",
"X c #1A2D56",
"o c #1B2D56",
"O c #1A2D57",
"+ c #1B2E56",
"@ c #1D2E55",
"# c #1D2F55",
"$ c #1E2F55",
"% c #1C2E56",
"& c #1D2E56",
"* c #FCA101",
"= c #FCA201",
"- c #FEA200",
"; c #FFA200",
": c #FEA300",
"> c #FFA300",
", c #FFA400",
"< c orange",
"1 c #FFA600",
/* pixels */
"                                ",
"                                ",
"  $$$                           ",
"  $$$                           ",
"  $$$                           ",
"  $$$                           ",
"  $$$        ;;;;;;;            ",
"  $$$      ;;;;;;;;;;;          ",
"  $$$     ;;;;;;;;;;;;;;        ",
"  $$$    ;;;;;      ;;;;        ",
"  $$$   ;;;;         ;;;;       ",
"  $$$  ;;;;           ;;;;      ",
"  $$$  ;;;             ;;       ",
"  $$$ <;;;                      ",
"  $$$ <;;                       ",
"  $$$ <;;                       ",
"  $$$ <;;                       ",
"  $$$ <;;                       ",
"  $$$$;;;;                      ",
"   $$. ;;;             ;;       ",
"   $$+ <;;;           ;;;;      ",
"   $$$+ ;;;;          ;;; $$$   ",
"    $$$ ;;;;;       ;;;;< $$$   ",
"    $$$$ <;;;;;;;;;;;;;< $$$$   ",
"     $$$+ ;;;;;;;;;;;;< +$$$    ",
"      $$$+  <<;;;;;;<  +$$$     ",
"       $$$$+   =;=   +$$$$      ",
"        $$$$$+OO+O.+$$$$$       ",
"         $$$$$$$$$$$$$$$        ",
"           $$$$$$$$$$$          ",
"                                ",
"                                "
};
