/* XPM */
static char *a66bb0576324418ad6f0eb3cd4f56285F9w37UuFb1TYF7Cd[] = {
/* columns rows colors chars-per-pixel */
"64 64 20 1 ",
"  c None",
". c #182C57",
"X c #192C57",
"o c #1B2D56",
"O c #1A2D57",
"+ c #1B2E56",
"@ c #1C2E55",
"# c #1D2E55",
"$ c #1D2F55",
"% c #1E2F55",
"& c #1F2F55",
"* c #172B58",
"= c #1F3054",
"- c #1F3055",
"; c #FFA100",
": c #FFA200",
"> c #FFA300",
", c #FFA400",
"< c orange",
"1 c #FFA600",
/* pixels */
"                                                                ",
"                                                                ",
"                                                                ",
"     %%%%%%                                                     ",
"     %%%%%%                                                     ",
"     %%%%%%                                                     ",
"     %%%%%%                                                     ",
"     %%%%%%                                                     ",
"     %%%%%%                                                     ",
"     %%%%%%                                                     ",
"     %%%%%%                                                     ",
"     %%%%%%                                                     ",
"     %%%%%%                ::::::::::::                         ",
"     %%%%%%             ::::::::::::::::::                      ",
"     %%%%%%           ::::::::::::::::::::::                    ",
"     %%%%%%          ::::::::::::::::::::::::                   ",
"     %%%%%%         :::::::::::::::::::::::::::                 ",
"     %%%%%%       ::::::::::::::::::::::::::::::                ",
"     %%%%%%       ::::::::::          :::::::::::               ",
"     %%%%%%      :::::::::              :::::::::               ",
"     %%%%%%     ::::::::                  ::::::::              ",
"     %%%%%%    ::::::::                    ::::::::             ",
"     %%%%%%    :::::::                      :::::::             ",
"     %%%%%%   :::::::                        :::::::            ",
"     %%%%%%   :::::::                        :::::::            ",
"     %%%%%%  :::::::                          :::               ",
"     %%%%%%  :::::::                                            ",
"     %%%%%%  ::::::                                             ",
"     %%%%%=  ::::::                                             ",
"     %%%%%X <::::::                                             ",
"     %%%%%X <::::::                                             ",
"     %%%%%X <:::::                                              ",
"     %%%%%* <:::::                                              ",
"     %%%%%O <:::::                                              ",
"     %%%%%O <::::::                                             ",
"     %%%%%= <::::::                                             ",
"     %%%%%%  ::::::                                             ",
"     %%%%%%  ::::::                                             ",
"     %%%%%%O <::::::                          ::                ",
"     %%%%%%%  ::::::                          ::::              ",
"      %%%%%%  :::::::                        :::::::            ",
"      %%%%%%% ::::::::                      ::::::::  %         ",
"      %%%%%%%  :::::::                      :::::::  %%%%       ",
"       %%%%%%% :::::::::                   ::::::::  %%%%%%     ",
"       %%%%%%%  :::::::::                :::::::::  %%%%%%%     ",
"        %%%%%%%  ::::::::::            ::::::::::  %%%%%%%      ",
"        %%%%%%%%  :::::::::::        :::::::::::  -%%%%%%%      ",
"         %%%%%%%=  ::::::::::::::::::::::::::::   %%%%%%%       ",
"          %%%%%%%%  ::::::::::::::::::::::::::   %%%%%%%%       ",
"          %%%%%%%%-  ::::::::::::::::::::::::   %%%%%%%%        ",
"           %%%%%%%%%   ::::::::::::::::::::   -%%%%%%%%         ",
"            %%%%%%%%%    ::::::::::::::::    %%%%%%%%%          ",
"             %%%%%%%%%%     <::::<:::<     %%%%%%%%%%           ",
"              %%%%%%%%%%=X               %%%%%%%%%%%            ",
"               %%%%%%%%%=%%%XO       X%%%%%%%%%%%%%             ",
"                %%%%%%%%=%%%=%%%%%%%%%%%%%%%%%%%%%              ",
"                  %%%%%%%%%%%%%%%%%%%%%%%%%%%%%%                ",
"                    %%%%%%%%%%%%%%%%%%%%%%%%%%%                 ",
"                      %%%%%%%%%%%%%%%%%%%%%%%                   ",
"                        %%%%%%%%%%%%%%%%%%                      ",
"                            %%%%%%%%%%                          ",
"                                                                ",
"                                                                ",
"                                                                "
};
