/* XPM */
static char *_acc97820f1d470fb3d92a567b70b83aGvs12bmhKLtU5l6i[] = {
/* columns rows colors chars-per-pixel */
"16 16 34 1 ",
"  c None",
". c #61523C",
"X c #745B35",
"o c #795E33",
"O c #7E6031",
"+ c #1A2D56",
"@ c #1B2D56",
"# c #1A2D57",
"$ c #1D2E55",
"% c #1D2F55",
"& c #1E2F55",
"* c #1C2E56",
"= c #1D2E56",
"- c #2F384F",
"; c #353B4C",
": c #343A4D",
"> c #233153",
", c #243253",
"< c #293551",
"1 c #2A3551",
"2 c #414148",
"3 c #87652D",
"4 c #9A6F26",
"5 c #DE910C",
"6 c #C18217",
"7 c #EB9807",
"8 c #F79E03",
"9 c #F29C05",
"0 c #FBA001",
"q c #FCA001",
"w c #FCA101",
"e c #FFA200",
"r c #FFA300",
"t c #FFA400",
/* pixels */
"                ",
" &&             ",
" &&             ",
" &&   tqqtq     ",
" &&  qqt tqt    ",
" &# tq     qt   ",
" &>qq           ",
" &:0t           ",
" &;0t           ",
" %>7t           ",
"  &4tq     q8   ",
"  %<5tq   ttO#> ",
"   &-6qttq9X&&  ",
"    &%2O3.<&&   ",
"     %%###&     ",
"                "
};
